<svg xmlns="http://www.w3.org/2000/svg" viewBox="0 0 100 100" width="64" height="64">
  <path fill="#32BCAD" d="M75.3 66.3l-16-16a3.5 3.5 0 0 0-2.5-1h-1.5a3.5 3.5 0 0 0-2.5 1l-16 16c-3.5 3.5-9.2 3.5-12.7 0l-3.2-3.2 19.2-19.2a3.5 3.5 0 0 0 1-2.5v-1.5a3.5 3.5 0 0 0-1-2.5L21 18.2c3.5-3.5 9.2-3.5 12.7 0l16 16a3.5 3.5 0 0 0 2.5 1h1.5a3.5 3.5 0 0 0 2.5-1l16-16c3.5-3.5 9.2-3.5 12.7 0L88 21.4 68.8 40.6a3.5 3.5 0 0 0-1 2.5v1.5a3.5 3.5 0 0 0 1 2.5L88 66.3l-3.2 3.2c-3.5 3.5-9.2 3.5-12.7 0z"/>
  <path fill="#32BCAD" d="M21.4 12l3.2 3.2L5.8 34l3.2 3.2L25.4 21c3.5-3.5 9.2-3.5 12.7 0l16 16a3.5 3.5 0 0 1 1 2.5v1.5a3.5 3.5 0 0 1-1 2.5L34.9 63.7c-3.5 3.5-3.5 9.2 0 12.7L21.4 88 12 78.6 31.2 59.4a3.5 3.5 0 0 0 1-2.5v-1.5a3.5 3.5 0 0 0-1-2.5L12 33.7l9.4-21.7z"/>
</svg>
